<svg xmlns="http://www.w3.org/2000/svg" width="28.782" height="28.781" viewBox="0 0 28.782 28.781"><defs><style>.a{fill:none;stroke:#44393e;stroke-linecap:round;stroke-linejoin:round;stroke-width:2px;}</style></defs><path class="a" d="M18.634,6.1a6.379,6.379,0,0,1,5.044,5.035M18.634,1A11.482,11.482,0,0,1,28.787,11.12M27.51,21.292v3.824a2.552,2.552,0,0,1-2.784,2.549,25.3,25.3,0,0,1-11.021-3.913A24.879,24.879,0,0,1,6.043,16.1,25.193,25.193,0,0,1,2.122,5.053,2.551,2.551,0,0,1,4.664,2.275H8.495a2.553,2.553,0,0,1,2.554,2.192,16.34,16.34,0,0,0,.894,3.582,2.546,2.546,0,0,1-.575,2.689L9.746,12.357A20.413,20.413,0,0,0,17.408,20l1.622-1.619a2.558,2.558,0,0,1,2.695-.574,16.423,16.423,0,0,0,3.588.892,2.551,2.551,0,0,1,2.2,2.587Z" transform="translate(-1.111 0.104)"/></svg>