<svg xmlns="http://www.w3.org/2000/svg" width="66" height="100.286" viewBox="0 0 66 100.286"><defs><style>.a{fill:none;stroke:#62a168;stroke-linecap:round;stroke-linejoin:round;stroke-width:6px;}</style></defs><g transform="translate(-2 2)"><circle class="a" cx="30" cy="30" r="30" transform="translate(5 18)"/><path class="a" d="M12,9V21.857l6.429,6.429" transform="translate(23 26.286)"/><path class="a" d="M46.18,71.071l-1.5,16.414a8.571,8.571,0,0,1-8.571,7.8H17.551a8.571,8.571,0,0,1-8.571-7.8L7.48,71.071m.043-45.857L9.023,8.8A8.571,8.571,0,0,1,17.551,1H36.194a8.571,8.571,0,0,1,8.571,7.8l1.5,16.414" transform="translate(8.149 0)"/></g></svg>