<svg viewBox="0 0 879 1062" fill="none" xmlns="http://www.w3.org/2000/svg">
<path d="M532.061 969.138C539.468 911.562 438.609 851.141 306.788 834.184C174.967 817.227 62.101 850.156 54.6946 907.732C47.2883 965.308 148.146 1025.73 279.968 1042.69C411.789 1059.64 524.655 1026.71 532.061 969.138Z" fill="#CBD5E1"/>
<path d="M640.5 409V717" stroke="#4D4D4D" stroke-width="5" stroke-miterlimit="10"/>
<path d="M0.940002 104V164.16L103 223.25V163.09L0.940002 104Z" fill="#EF9E3F"/>
<path d="M103 223L219 151L220 94L103 163V223Z" fill="#EDA864"/>
<path d="M1 104L118 38L220 94L103 164L1 104Z" fill="#F6871F"/>
<path d="M180 926L292 991L432 910L292 829L152 910L180 926Z" fill="#D8610F"/>
<path d="M292 991L432 910V942L292 1023V991Z" fill="#CE8959"/>
<path d="M152 910V942L292 1023V991L152 910Z" fill="#C4743D"/>
<path d="M235.5 204.5V916.5" stroke="#F6871F" stroke-width="7" stroke-miterlimit="10"/>
<path d="M347.5 916.5L348.5 269.5" stroke="#EDA864" stroke-width="7" stroke-miterlimit="10"/>
<path d="M234.5 915.5L291.5 947.5" stroke="#F6871F" stroke-width="7" stroke-miterlimit="10"/>
<path d="M235.5 851.5L292.5 883.5" stroke="#F6871F" stroke-width="7" stroke-miterlimit="10"/>
<path d="M235.5 786.5L292.5 818.5" stroke="#F6871F" stroke-width="7" stroke-miterlimit="10"/>
<path d="M235.5 722.5L292.5 754.5" stroke="#F6871F" stroke-width="7" stroke-miterlimit="10"/>
<path d="M235.5 657.5L292.5 689.5" stroke="#F6871F" stroke-width="7" stroke-miterlimit="10"/>
<path d="M235.5 592.5L292.5 624.5" stroke="#F6871F" stroke-width="7" stroke-miterlimit="10"/>
<path d="M236.5 528.5L293.5 560.5" stroke="#F6871F" stroke-width="7" stroke-miterlimit="10"/>
<path d="M236.5 463.5L293.5 495.5" stroke="#F6871F" stroke-width="7" stroke-miterlimit="10"/>
<path d="M234.5 397.5L291.5 429.5" stroke="#F6871F" stroke-width="7" stroke-miterlimit="10"/>
<path d="M235.5 333.5L292.5 365.5" stroke="#F6871F" stroke-width="7" stroke-miterlimit="10"/>
<path d="M290.5 882.5L347.5 914.5" stroke="#EDA864" stroke-width="7" stroke-miterlimit="10"/>
<path d="M290.5 817.5L347.5 849.5" stroke="#EDA864" stroke-width="7" stroke-miterlimit="10"/>
<path d="M290.5 753.5L347.5 785.5" stroke="#EDA864" stroke-width="7" stroke-miterlimit="10"/>
<path d="M290.5 688.5L347.5 720.5" stroke="#EDA864" stroke-width="7" stroke-miterlimit="10"/>
<path d="M290.5 623.5L347.5 655.5" stroke="#EDA864" stroke-width="7" stroke-miterlimit="10"/>
<path d="M291.5 559.5L348.5 591.5" stroke="#EDA864" stroke-width="7" stroke-miterlimit="10"/>
<path d="M291.5 494.5L348.5 526.5" stroke="#EDA864" stroke-width="7" stroke-miterlimit="10"/>
<path d="M289.5 428.5L346.5 460.5" stroke="#EDA864" stroke-width="7" stroke-miterlimit="10"/>
<path d="M290.5 364.5L347.5 396.5" stroke="#EDA864" stroke-width="7" stroke-miterlimit="10"/>
<path d="M290.5 299.5L347.5 331.5" stroke="#EDA864" stroke-width="7" stroke-miterlimit="10"/>
<path d="M348.5 853.5L291.5 885.5" stroke="#EDA864" stroke-width="7" stroke-miterlimit="10"/>
<path d="M348.5 788.5L291.5 820.5" stroke="#EDA864" stroke-width="7" stroke-miterlimit="10"/>
<path d="M348.5 724.5L291.5 756.5" stroke="#EDA864" stroke-width="7" stroke-miterlimit="10"/>
<path d="M348.5 659.5L291.5 691.5" stroke="#EDA864" stroke-width="7" stroke-miterlimit="10"/>
<path d="M348.5 594.5L291.5 626.5" stroke="#EDA864" stroke-width="7" stroke-miterlimit="10"/>
<path d="M347.5 530.5L290.5 562.5" stroke="#EDA864" stroke-width="7" stroke-miterlimit="10"/>
<path d="M347.5 465.5L290.5 497.5" stroke="#EDA864" stroke-width="7" stroke-miterlimit="10"/>
<path d="M349.5 399.5L292.5 431.5" stroke="#EDA864" stroke-width="7" stroke-miterlimit="10"/>
<path d="M348.5 335.5L291.5 367.5" stroke="#EDA864" stroke-width="7" stroke-miterlimit="10"/>
<path d="M348.5 270.5L291.5 302.5" stroke="#EDA864" stroke-width="7" stroke-miterlimit="10"/>
<path d="M291.5 885.5L234.5 917.5" stroke="#F6871F" stroke-width="7" stroke-miterlimit="10"/>
<path d="M348.5 915.5L291.5 947.5" stroke="#EDA864" stroke-width="7" stroke-miterlimit="10"/>
<path d="M291.5 820.5L234.5 852.5" stroke="#F6871F" stroke-width="7" stroke-miterlimit="10"/>
<path d="M291.5 756.5L234.5 788.5" stroke="#F6871F" stroke-width="7" stroke-miterlimit="10"/>
<path d="M291.5 691.5L234.5 723.5" stroke="#F6871F" stroke-width="7" stroke-miterlimit="10"/>
<path d="M291.5 626.5L234.5 658.5" stroke="#F6871F" stroke-width="7" stroke-miterlimit="10"/>
<path d="M290.5 562.5L233.5 594.5" stroke="#F6871F" stroke-width="7" stroke-miterlimit="10"/>
<path d="M290.5 497.5L233.5 529.5" stroke="#F6871F" stroke-width="7" stroke-miterlimit="10"/>
<path d="M292.5 431.5L235.5 463.5" stroke="#F6871F" stroke-width="7" stroke-miterlimit="10"/>
<path d="M291.5 367.5L234.5 399.5" stroke="#F6871F" stroke-width="7" stroke-miterlimit="10"/>
<path d="M291.5 302.5L234.5 334.5" stroke="#F6871F" stroke-width="7" stroke-miterlimit="10"/>
<path d="M291.5 948.5V947.17V236.5" stroke="#EF9E3F" stroke-width="7" stroke-miterlimit="10"/>
<path d="M352.35 203V275.74C291.73 311.1 290.77 311.03 290.76 311L290 239.59L352.35 203Z" fill="#EDA864"/>
<path d="M70 57.38L26 83L830 546.4L875 520L70 57.38Z" fill="#D8610F"/>
<path d="M832.54 498.55L833.5 448.79" stroke="#EDA864" stroke-width="7" stroke-miterlimit="10"/>
<path d="M788.07 472.13L789.06 420.78" stroke="#F58758" stroke-width="7" stroke-miterlimit="10"/>
<path d="M744.62 447.44L745.61 396.09" stroke="#EDA864" stroke-width="7" stroke-miterlimit="10"/>
<path d="M700.18 421.77L701.17 370.42" stroke="#EDA864" stroke-width="7" stroke-miterlimit="10"/>
<path d="M655.75 396.09L656.73 344.74" stroke="#EDA864" stroke-width="7" stroke-miterlimit="10"/>
<path d="M613.28 372.39L614.27 321.04" stroke="#EDA864" stroke-width="7" stroke-miterlimit="10"/>
<path d="M568.84 346.71L569.83 295.36" stroke="#EDA864" stroke-width="7" stroke-miterlimit="10"/>
<path d="M524.41 321.04L525.39 269.69" stroke="#EDA864" stroke-width="7" stroke-miterlimit="10"/>
<path d="M480.95 296.35L481.94 245" stroke="#EDA864" stroke-width="7" stroke-miterlimit="10"/>
<path d="M431.5 267.5L432.5 215.5" stroke="#EDA864" stroke-width="7" stroke-miterlimit="10"/>
<path d="M386.5 241.5L387.5 189.5" stroke="#EDA864" stroke-width="7" stroke-miterlimit="10"/>
<path d="M296.5 189.5L297.5 137.5" stroke="#EDA864" stroke-width="7" stroke-miterlimit="10"/>
<path d="M344.5 215.5L345.5 163.5" stroke="#EDA864" stroke-width="7" stroke-miterlimit="10"/>
<path d="M251.5 163.5L252.5 111.5" stroke="#EDA864" stroke-width="7" stroke-miterlimit="10"/>
<path d="M206.5 137.5L207.5 85.5" stroke="#EDA864" stroke-width="7" stroke-miterlimit="10"/>
<path d="M162.5 112.5L163.5 60.5" stroke="#EDA864" stroke-width="7" stroke-miterlimit="10"/>
<path d="M117.5 86.5L118.5 34.5" stroke="#EDA864" stroke-width="7" stroke-miterlimit="10"/>
<path d="M789 522L832.06 498.08" stroke="#EDA864" stroke-width="7" stroke-miterlimit="10"/>
<path d="M744.13 495.34L788.57 470.65" stroke="#EDA864" stroke-width="7" stroke-miterlimit="10"/>
<path d="M699.69 470.65L744.13 445.96" stroke="#EDA864" stroke-width="7" stroke-miterlimit="10"/>
<path d="M656.24 443.99L700.68 419.3" stroke="#EDA864" stroke-width="7" stroke-miterlimit="10"/>
<path d="M610.81 421.27L655.25 396.58" stroke="#EDA864" stroke-width="7" stroke-miterlimit="10"/>
<path d="M567.36 394.61L611.8 369.92" stroke="#EDA864" stroke-width="7" stroke-miterlimit="10"/>
<path d="M522.92 369.92L567.36 345.23" stroke="#EDA864" stroke-width="7" stroke-miterlimit="10"/>
<path d="M479.47 343.26L523.91 318.57" stroke="#EDA864" stroke-width="7" stroke-miterlimit="10"/>
<path d="M435.03 319.56L479.47 294.87" stroke="#EDA864" stroke-width="7" stroke-miterlimit="10"/>
<path d="M386 290L431 265" stroke="#EDA864" stroke-width="7" stroke-miterlimit="10"/>
<path d="M341 265L386 240" stroke="#EDA864" stroke-width="7" stroke-miterlimit="10"/>
<path d="M297 238L342 213" stroke="#EDA864" stroke-width="7" stroke-miterlimit="10"/>
<path d="M251 215L296 190" stroke="#EDA864" stroke-width="7" stroke-miterlimit="10"/>
<path d="M207 188L252 163" stroke="#EDA864" stroke-width="7" stroke-miterlimit="10"/>
<path d="M162 163L207 138" stroke="#EDA864" stroke-width="7" stroke-miterlimit="10"/>
<path d="M118 136L163 111" stroke="#EDA864" stroke-width="7" stroke-miterlimit="10"/>
<path d="M70 112L115 87" stroke="#EDA864" stroke-width="7" stroke-miterlimit="10"/>
<path d="M26 85L71 60" stroke="#EDA864" stroke-width="7" stroke-miterlimit="10"/>
<path d="M72.5 60.5L73.5 8.5" stroke="#EDA864" stroke-width="7" stroke-miterlimit="10"/>
<path d="M293 431L294 561L376 609L377 480L293 431Z" fill="#EF9E3F"/>
<path d="M376 609L460 560L459 431L377 479L376 609Z" fill="#EDA864"/>
<path d="M292.5 430.5L377 481L459.5 430.5L376.5 381.5L292.5 430.5Z" fill="#F6871F"/>
<path d="M303 459V539L359 571V492L303 459Z" fill="#9FD3F4"/>
<path d="M448 460V540L392 572V493L448 460Z" fill="#C2E3F2"/>
<path d="M831.5 497.5L23.5 30.5" stroke="#F6871F" stroke-width="7" stroke-miterlimit="10"/>
<path d="M70.5 3.5L876.5 469.5" stroke="#F6871F" stroke-width="7" stroke-miterlimit="10"/>
<path d="M785.5 522.5L786.5 470.5" stroke="#F6871F" stroke-width="7" stroke-miterlimit="10"/>
<path d="M740.5 496.5L741.5 444.5" stroke="#F6871F" stroke-width="7" stroke-miterlimit="10"/>
<path d="M696.5 471.5L697.5 419.5" stroke="#F6871F" stroke-width="7" stroke-miterlimit="10"/>
<path d="M651.5 445.5L652.5 393.5" stroke="#F6871F" stroke-width="7" stroke-miterlimit="10"/>
<path d="M606.5 419.5L607.5 367.5" stroke="#F6871F" stroke-width="7" stroke-miterlimit="10"/>
<path d="M563.5 395.5L564.5 343.5" stroke="#F6871F" stroke-width="7" stroke-miterlimit="10"/>
<path d="M518.5 369.5L519.5 317.5" stroke="#F6871F" stroke-width="7" stroke-miterlimit="10"/>
<path d="M473.5 343.5L474.5 291.5" stroke="#F6871F" stroke-width="7" stroke-miterlimit="10"/>
<path d="M429.5 318.5L430.5 266.5" stroke="#F6871F" stroke-width="7" stroke-miterlimit="10"/>
<path d="M384.5 292.5L385.5 240.5" stroke="#F6871F" stroke-width="7" stroke-miterlimit="10"/>
<path d="M339.5 266.5L340.5 214.5" stroke="#F6871F" stroke-width="7" stroke-miterlimit="10"/>
<path d="M249.5 214.5L250.5 162.5" stroke="#F6871F" stroke-width="7" stroke-miterlimit="10"/>
<path d="M297.5 240.5L298.5 188.5" stroke="#F6871F" stroke-width="7" stroke-miterlimit="10"/>
<path d="M204.5 188.5L205.5 136.5" stroke="#F6871F" stroke-width="7" stroke-miterlimit="10"/>
<path d="M159.5 162.5L160.5 110.5" stroke="#F6871F" stroke-width="7" stroke-miterlimit="10"/>
<path d="M115.5 137.5L116.5 85.5" stroke="#F6871F" stroke-width="7" stroke-miterlimit="10"/>
<path d="M70.5 111.5L71.5 59.5" stroke="#F6871F" stroke-width="7" stroke-miterlimit="10"/>
<path d="M25.5 85.5L26.5 33.5" stroke="#F6871F" stroke-width="7" stroke-miterlimit="10"/>
<path d="M228 202V274.74C288.62 310.1 289.58 310.03 289.59 310L291 311L290.35 238.58L228 202Z" fill="#EF9E3F"/>
<path d="M26 32L73.09 5" stroke="#F6871F" stroke-width="7" stroke-miterlimit="10"/>
<path d="M72 60L119.09 33" stroke="#F6871F" stroke-width="7" stroke-miterlimit="10"/>
<path d="M118 86L165.09 59" stroke="#F6871F" stroke-width="7" stroke-miterlimit="10"/>
<path d="M163 111L210.09 84" stroke="#F6871F" stroke-width="7" stroke-miterlimit="10"/>
<path d="M205 135L252.09 108" stroke="#F6871F" stroke-width="7" stroke-miterlimit="10"/>
<path d="M251 163L298.09 136" stroke="#F6871F" stroke-width="7" stroke-miterlimit="10"/>
<path d="M297 189L344.09 162" stroke="#F6871F" stroke-width="7" stroke-miterlimit="10"/>
<path d="M342 214L389.09 187" stroke="#F6871F" stroke-width="7" stroke-miterlimit="10"/>
<path d="M384 240L431.09 213" stroke="#F6871F" stroke-width="7" stroke-miterlimit="10"/>
<path d="M428 267L475.09 240" stroke="#F6871F" stroke-width="7" stroke-miterlimit="10"/>
<path d="M474 293L521.09 266" stroke="#F6871F" stroke-width="7" stroke-miterlimit="10"/>
<path d="M519 318L566.09 291" stroke="#F6871F" stroke-width="7" stroke-miterlimit="10"/>
<path d="M563 343L610.09 316" stroke="#F6871F" stroke-width="7" stroke-miterlimit="10"/>
<path d="M607 370L654.09 343" stroke="#F6871F" stroke-width="7" stroke-miterlimit="10"/>
<path d="M652 395L699.09 368" stroke="#F6871F" stroke-width="7" stroke-miterlimit="10"/>
<path d="M698 421L745.09 394" stroke="#F6871F" stroke-width="7" stroke-miterlimit="10"/>
<path d="M741 446L788.09 419" stroke="#F6871F" stroke-width="7" stroke-miterlimit="10"/>
<path d="M786 471L833.09 444" stroke="#F6871F" stroke-width="7" stroke-miterlimit="10"/>
<path d="M829 494.67V552L879 522.23L878 466L829 494.67Z" fill="#EDA864"/>
<path d="M831.5 548.5L25.5 82.5" stroke="#EF9E3F" stroke-width="7" stroke-miterlimit="10"/>
</svg>
